<?xml version="1.0" encoding="UTF-8"?>
<svg class="logo-svg" width="99.952" height="99.952" version="1.1" viewBox="0 0 100 99.952" xmlns="http://www.w3.org/2000/svg" xmlns:xlink="http://www.w3.org/1999/xlink">
 <svg transform="translate(0 -.024194)" width="100" version="1.1" viewBox="0 0 100 100">
  <defs>
   <circle id="path-1" cx="50" cy="50" r="50"/>
   <linearGradient id="linearGradient-3" x1="17.508" x2="18.446" y1="18.088" y2="18.088" gradientTransform="scale(.80457 1.2429)" gradientUnits="userSpaceOnUse">
    <stop stop-color="#97EBF6" offset="0"/>
    <stop stop-color="#59C1CE" offset="1"/>
   </linearGradient>
  </defs>
  <g fill="none" fill-rule="evenodd">
   <g id="go">
    <g id="logo__go__circle" fill="#17afc2" fill-rule="nonzero">
     <circle id="a" cx="50" cy="50" r="50"/>
    </g>
    <g id="logo__go__body">
     <mask id="mask-2" fill="#ffffff">
      <use width="100%" height="100%" xlink:href="#path-1"/>
     </mask>
     <g mask="url(#mask-2)">
      <g transform="translate(16,20)" fill-rule="nonzero">
       <g stroke="#178391">
        <path id="Shape" d="m0.818 50.893c0.135 2.79 2.91 1.498 4.17 0.627 1.193-0.828 1.542-0.14 1.647-1.773 0.068-1.074 0.192-2.147 0.13-3.225-1.804-0.164-3.768 0.267-5.248 1.346-0.762 0.556-2.192 2.33-0.7 3.025" fill="#97ebf5" stroke-width="1.5"/>
        <path d="m0.818 50.893c0.238-0.134 1.268-0.676 1.43-1" fill="#c6b198"/>
        <path d="m7.235 17.676c-10.64-3-2.73-16.58 5.816-10.995l-5.815 10.996zm47.275-12.014c8.423-5.934 16.034 7.455 6.246 10.823z" fill="#97ebf5" stroke-width="1.5"/>
       </g>
       <path d="m7.68 13.926c-1.405-0.745-2.435-1.757-1.576-3.385 0.795-1.507 2.272-1.344 3.676-0.6l-2.1 3.986zm51.858-1.416c1.404-0.745 2.434-1.757 1.575-3.386-0.795-1.508-2.272-1.344-3.676-0.6l2.1 3.986z" fill="#178391"/>
       <g stroke="#178391">
        <path d="m68.2 50.54c-0.133 2.788-2.91 1.497-4.168 0.626-1.194-0.828-1.543-0.14-1.648-1.773-0.068-1.074-0.192-2.147-0.13-3.225 1.804-0.164 3.768 0.267 5.248 1.346 0.762 0.556 2.192 2.33 0.7 3.025" fill="#97ebf5" stroke-width="1.5"/>
        <path d="m68.2 50.54c-0.403-0.152-1.676-0.636-1.95-1.002" fill="#c6b198"/>
        <path d="m63.011 47.897c0.613 10.442 1.97 22.506-2.86 32.184-5.08 10.182-17.775 12.743-28.235 12.368-8.215-0.295-18.14-2.983-22.776-10.513-5.44-8.834-2.866-21.968-2.47-31.798 0.467-11.643-3.145-23.32 0.668-34.714 3.956-11.82 14.624-14.49 26.105-15.4 10.653 0 20.64 1.527 25.845 11.794 4.672 11.507 3.01 23.916 3.723 36.079z" fill="#97ebf6" stroke-width="1.5"/>
        <path d="m35.324 16.367c1.913 11.153 20.086 8.205 17.476-3.044-2.34-10.087-18.112-7.295-17.476 3.044zm-21.718 1.803c2.48 9.71 17.976 7.225 17.392-2.515-0.7-11.665-19.762-9.414-17.392 2.516zm23.911 12.58c8e-3 1.45 0.328 3.08 0.055 4.62-0.37 0.7-1.093 0.775-1.717 1.058a2.529 2.529 0 0 1-1.935-1.514c-0.22-1.76 0.083-3.466 0.14-5.227l3.457 1.064z" fill="#fff"/>
       </g>
       <g id="Group" transform="translate(15.58,13.684)">
        <ellipse id="Oval" cx="2.704" cy="2.904" rx="2.617" ry="2.843" fill="#178391"/>
        <circle cx="3.895" cy="3.546" r="1" fill="#fff"/>
       </g>
       <g transform="translate(37.56,12.976)">
        <ellipse cx="2.748" cy="2.904" rx="2.573" ry="2.843" fill="#178391"/>
        <circle cx="3.918" cy="3.546" r="1" fill="#fff"/>
       </g>
       <path d="m30.038 30.593c-1.14 2.776 0.637 8.326 3.735 4.232-0.222-1.76 0.083-3.465 0.138-5.227l-3.872 0.995z" fill="#fff" stroke="#178391"/>
       <path d="m30.43 25.247c-2.13 0.182-3.87 2.72-2.762 4.728 1.465 2.66 4.736-0.235 6.773 0.036 2.345 0.05 4.266 2.488 6.15 0.442 2.093-2.275-0.903-4.492-3.244-5.482l-6.917 0.277z" fill="#97ebf5" stroke="#178391" stroke-width="1.2"/>
       <path d="m30.16 25.136c-0.156-3.698 6.873-4.16 7.703-1.065 0.828 3.09-7.356 3.807-7.702 1.066-0.275-2.19 0 0 0 0z" fill="#168391"/>
      </g>
     </g>
    </g>
    <g id="logo__go__shield" transform="translate(12,46)" stroke="#036d7a">
     <path id="Combined-Shape" d="m29 3.742v29.07l-14.556 12.188-14.444-12.189v-29.071c0.452 0.019 0.91 0.029 1.374 0.029 5.806 0 10.816-1.54 13.154-3.769 2.336 2.228 7.348 3.769 13.154 3.769 0.444 0 0.884-0.01 1.318-0.027z" fill="url(#linearGradient-3)" stroke-linecap="square"/>
     <g id="bug" transform="translate(6,13)">
      <g stroke-linecap="square">
       <path transform="matrix(-1,0,0,1,5.538,0)" d="M 1.385,12.308 3.342,13.484 4.154,16"/>
       <path d="m12.462 12.308 1.957 1.176 0.812 2.516"/>
       <path d="m13.846 8.615h2.51l1.644 2.462"/>
      </g>
      <ellipse cx="8.308" cy="8" rx="4.154" ry="8"/>
      <g stroke-linecap="square">
       <path transform="matrix(-1,0,0,1,4.154,0)" d="m0 8.615h2.51l1.644 2.462"/>
       <path d="m12.462 3.692 2.97-0.753 1.183-1.708"/>
       <path transform="matrix(-1,0,0,1,4.154,0)" d="m0 3.692 2.97-0.753 1.184-1.708"/>
      </g>
      <path d="m6.048 1.23c0.582 0.444 1.38 0.717 2.26 0.717s1.677-0.273 2.26-0.716c1.14 1.431 1.894 3.915 1.894 6.739 0 4.435-1.86 8.03-4.154 8.03s-4.154-3.595-4.154-8.03c0-2.824 0.754-5.308 1.894-6.74z"/>
      <path d="m8.308 2.945v12.571" stroke-linecap="square"/>
     </g>
    </g>
   </g>
  </g>
 </svg>
</svg>
