<svg id="svg" xmlns="http://www.w3.org/2000/svg" width="400" height="400" viewBox="0, 0, 400,400"><g id="svgg"><path id="path0" d="M181.800 0.635 C 85.597 9.308,9.038 86.113,0.617 182.400 C -4.496 240.866,15.966 298.070,56.972 339.947 C 65.298 348.451,79.095 360.277,84.204 363.290 C 84.470 363.447,84.515 362.422,84.335 360.264 C 84.186 358.469,84.049 355.078,84.032 352.729 C 84.009 349.629,83.846 348.303,83.438 347.896 C 83.130 347.587,74.580 340.337,64.438 331.785 L 46.000 316.235 46.000 256.565 L 46.000 196.896 53.900 196.876 C 62.676 196.855,70.374 196.102,77.794 194.540 C 83.729 193.290,83.199 193.747,83.206 189.876 C 83.223 179.939,84.498 166.260,86.244 157.273 C 86.814 154.343,87.216 151.913,87.140 151.873 C 87.063 151.833,85.758 151.181,84.241 150.426 C 70.457 143.560,65.683 128.920,72.781 115.285 C 80.743 99.993,98.425 94.213,113.757 101.891 L 115.714 102.871 116.757 102.039 C 155.158 71.400,241.485 68.547,279.500 96.661 L 282.421 98.821 284.165 97.799 C 315.237 79.590,346.055 124.815,316.163 144.758 C 314.603 145.799,312.793 146.872,312.141 147.142 L 310.957 147.632 312.272 153.716 C 316.864 174.961,318.091 195.875,318.383 257.875 L 318.400 261.551 320.300 261.809 C 335.941 263.937,347.100 275.892,340.448 283.395 C 340.055 283.838,339.411 285.074,339.018 286.142 C 336.802 292.153,331.048 293.496,323.289 289.812 C 321.636 289.026,320.237 288.432,320.181 288.492 C 320.125 288.551,320.331 292.470,320.638 297.200 C 322.232 321.789,321.358 357.827,319.094 360.774 C 318.676 361.319,318.716 361.317,319.407 360.759 C 319.843 360.407,322.000 358.700,324.200 356.966 C 398.354 298.513,421.360 195.455,379.151 110.800 C 342.280 36.852,264.107 -6.786,181.800 0.635 M198.700 83.089 C 199.415 83.178,200.585 83.178,201.300 83.089 C 202.015 83.001,201.430 82.928,200.000 82.928 C 198.570 82.928,197.985 83.001,198.700 83.089 M288.600 104.800 C 289.459 105.680,290.252 106.400,290.362 106.400 C 290.472 106.400,289.859 105.680,289.000 104.800 C 288.141 103.920,287.348 103.200,287.238 103.200 C 287.128 103.200,287.741 103.920,288.600 104.800 M242.305 106.283 C 242.802 106.379,243.522 106.375,243.905 106.275 C 244.287 106.175,243.880 106.096,243.000 106.101 C 242.120 106.105,241.807 106.187,242.305 106.283 M153.100 113.882 C 153.595 113.978,154.405 113.978,154.900 113.882 C 155.395 113.787,154.990 113.709,154.000 113.709 C 153.010 113.709,152.605 113.787,153.100 113.882 M266.800 114.925 C 266.800 114.994,267.385 115.579,268.100 116.225 L 269.400 117.400 268.225 116.100 C 267.130 114.888,266.800 114.616,266.800 114.925 M200.300 168.282 C 200.795 168.378,201.605 168.378,202.100 168.282 C 202.595 168.187,202.190 168.109,201.200 168.109 C 200.210 168.109,199.805 168.187,200.300 168.282 M50.900 201.076 C 51.285 201.176,51.915 201.176,52.300 201.076 C 52.685 200.975,52.370 200.893,51.600 200.893 C 50.830 200.893,50.515 200.975,50.900 201.076 M54.700 201.082 C 55.195 201.178,56.005 201.178,56.500 201.082 C 56.995 200.987,56.590 200.909,55.600 200.909 C 54.610 200.909,54.205 200.987,54.700 201.082 M152.500 201.076 C 152.885 201.176,153.515 201.176,153.900 201.076 C 154.285 200.975,153.970 200.893,153.200 200.893 C 152.430 200.893,152.115 200.975,152.500 201.076 M311.693 202.800 C 311.693 203.570,311.775 203.885,311.876 203.500 C 311.976 203.115,311.976 202.485,311.876 202.100 C 311.775 201.715,311.693 202.030,311.693 202.800 M216.534 215.600 C 216.534 217.250,216.605 217.925,216.691 217.100 C 216.778 216.275,216.778 214.925,216.691 214.100 C 216.605 213.275,216.534 213.950,216.534 215.600 M312.162 230.600 C 312.162 234.120,312.224 235.506,312.298 233.681 C 312.372 231.856,312.372 228.976,312.297 227.281 C 312.222 225.586,312.161 227.080,312.162 230.600 M312.493 259.600 C 312.493 260.370,312.575 260.685,312.676 260.300 C 312.776 259.915,312.776 259.285,312.676 258.900 C 312.575 258.515,312.493 258.830,312.493 259.600 " stroke="none" fill="#14abc3" fill-rule="evenodd"></path><path id="path1" d="M192.400 83.616 C 127.310 90.721,99.877 111.952,91.640 161.600 C 90.331 169.488,88.722 190.432,89.373 191.103 C 90.065 191.817,100.782 185.889,103.821 183.111 L 105.990 181.129 108.095 182.900 C 118.774 191.884,136.653 196.800,158.642 196.800 L 166.000 196.800 166.000 256.566 L 166.000 316.331 136.700 340.829 C 120.585 354.303,107.036 365.651,106.591 366.048 C 105.798 366.755,105.633 366.642,98.005 360.204 C 93.727 356.593,90.174 353.692,90.110 353.757 C 89.944 353.922,90.763 365.571,91.033 366.880 C 91.259 367.979,96.417 371.355,105.000 376.021 C 106.760 376.978,108.260 377.906,108.334 378.083 C 108.408 378.260,108.633 378.303,108.834 378.179 C 109.035 378.055,109.200 378.154,109.200 378.400 C 109.200 378.646,109.380 378.736,109.600 378.600 C 109.820 378.464,110.000 378.554,110.000 378.800 C 110.000 379.046,110.180 379.136,110.400 379.000 C 110.620 378.864,110.800 378.954,110.800 379.200 C 110.800 379.446,110.980 379.536,111.200 379.400 C 111.420 379.264,111.600 379.343,111.600 379.576 C 111.600 379.809,111.736 379.955,111.902 379.900 C 112.326 379.760,120.935 383.695,121.294 384.193 C 121.456 384.417,121.591 384.478,121.594 384.328 C 121.599 384.079,124.497 385.152,128.000 386.699 C 128.770 387.039,129.720 387.380,130.111 387.458 C 130.502 387.535,131.492 387.895,132.311 388.258 C 133.130 388.621,134.017 388.964,134.282 389.021 C 135.584 389.299,139.059 390.552,139.500 390.902 C 139.775 391.120,140.000 391.200,140.000 391.080 C 140.000 390.789,145.680 392.393,146.237 392.841 C 146.477 393.035,146.780 393.087,146.910 392.956 C 147.040 392.826,147.384 392.868,147.673 393.048 C 147.963 393.229,148.470 393.424,148.800 393.482 C 149.130 393.540,152.190 394.229,155.600 395.013 C 159.010 395.797,162.430 396.524,163.200 396.630 C 163.970 396.735,166.130 397.077,168.000 397.390 C 171.975 398.056,177.127 398.783,179.400 398.999 C 180.280 399.083,182.440 399.287,184.200 399.452 C 188.350 399.840,211.650 399.840,215.800 399.452 C 217.560 399.287,219.720 399.083,220.600 398.999 C 222.873 398.783,228.025 398.056,232.000 397.390 C 233.870 397.077,236.030 396.735,236.800 396.630 C 237.570 396.524,240.990 395.797,244.400 395.013 C 247.810 394.229,250.870 393.540,251.200 393.482 C 251.530 393.424,252.037 393.229,252.327 393.048 C 252.616 392.868,252.960 392.826,253.090 392.956 C 253.220 393.087,253.523 393.035,253.763 392.841 C 254.320 392.393,260.000 390.789,260.000 391.080 C 260.000 391.200,260.225 391.120,260.500 390.902 C 260.941 390.552,264.416 389.299,265.718 389.021 C 265.983 388.964,266.870 388.621,267.689 388.258 C 268.508 387.895,269.498 387.535,269.889 387.458 C 270.280 387.380,271.230 387.039,272.000 386.699 C 275.503 385.152,278.401 384.079,278.406 384.328 C 278.409 384.478,278.544 384.417,278.706 384.193 C 279.065 383.695,287.674 379.760,288.098 379.900 C 288.264 379.955,288.400 379.809,288.400 379.576 C 288.400 379.343,288.580 379.264,288.800 379.400 C 289.020 379.536,289.200 379.446,289.200 379.200 C 289.200 378.954,289.380 378.864,289.600 379.000 C 289.820 379.136,290.000 379.046,290.000 378.800 C 290.000 378.554,290.180 378.464,290.400 378.600 C 290.620 378.736,290.800 378.627,290.800 378.357 C 290.800 378.087,290.909 377.976,291.043 378.109 C 291.176 378.243,291.491 378.178,291.743 377.966 C 291.994 377.754,295.005 375.988,298.433 374.041 C 301.861 372.095,306.465 369.334,308.664 367.907 L 312.663 365.313 313.166 361.756 C 316.074 341.175,316.222 323.098,313.792 285.400 C 312.502 265.377,312.020 250.845,312.005 231.400 C 311.935 144.867,300.144 111.670,263.234 94.084 C 246.870 86.287,213.331 81.331,192.400 83.616 M296.170 100.011 C 294.833 100.190,292.249 100.911,290.427 101.614 L 287.114 102.891 289.490 105.346 C 291.351 107.269,295.353 111.913,295.861 112.740 C 295.908 112.817,296.604 112.663,297.407 112.398 C 306.891 109.268,314.000 120.447,306.713 127.031 L 305.109 128.480 307.242 134.940 C 308.415 138.493,309.415 141.464,309.464 141.543 C 309.747 141.998,314.578 138.670,316.707 136.553 C 330.610 122.728,316.327 97.314,296.170 100.011 M95.739 104.813 C 74.813 108.559,68.471 135.218,86.252 144.689 L 88.672 145.979 90.569 140.325 L 92.466 134.671 90.619 133.093 C 82.841 126.444,89.637 114.812,99.363 118.126 L 101.171 118.742 102.971 116.219 C 103.961 114.832,106.136 112.246,107.804 110.473 C 111.250 106.810,111.311 107.075,106.684 105.652 C 103.482 104.667,98.633 104.295,95.739 104.813 M252.327 107.177 C 279.865 113.994,287.738 150.892,265.217 167.587 C 245.444 182.245,215.764 176.182,206.225 155.536 C 193.841 128.732,221.633 99.579,252.327 107.177 M162.129 110.644 C 196.216 117.095,200.453 162.693,168.210 176.071 C 142.272 186.833,115.896 171.291,115.819 145.200 C 115.750 121.682,136.933 105.876,162.129 110.644 M242.100 110.276 C 242.485 110.376,243.115 110.376,243.500 110.276 C 243.885 110.175,243.570 110.093,242.800 110.093 C 242.030 110.093,241.715 110.175,242.100 110.276 M216.181 120.900 L 214.600 122.600 216.300 121.019 C 217.881 119.548,218.184 119.200,217.881 119.200 C 217.816 119.200,217.051 119.965,216.181 120.900 M127.200 165.325 C 127.200 165.394,127.785 165.979,128.500 166.625 L 129.800 167.800 128.625 166.500 C 127.530 165.288,127.200 165.016,127.200 165.325 M206.216 168.620 C 211.180 169.910,214.915 173.074,215.454 176.446 C 215.671 177.806,215.967 178.176,217.553 179.073 C 227.184 184.518,231.605 189.647,231.596 195.364 C 231.586 201.845,226.024 207.388,219.523 207.396 L 216.445 207.400 216.680 212.608 C 217.126 222.496,216.307 224.399,210.604 226.722 C 206.670 228.324,203.643 227.589,200.441 224.255 L 199.081 222.839 197.471 224.218 C 189.125 231.361,180.829 224.573,180.806 210.583 L 180.800 206.966 179.051 206.498 C 166.788 203.218,169.173 183.263,182.314 179.197 C 184.250 178.599,184.560 178.351,185.008 177.047 C 187.328 170.301,197.354 166.316,206.216 168.620 M212.994 183.209 C 210.219 187.700,193.625 188.717,187.423 184.776 C 181.388 180.942,173.068 191.849,176.907 198.562 C 179.185 202.546,181.793 202.743,191.299 199.650 C 200.454 196.671,203.409 196.782,212.441 200.446 C 219.040 203.123,221.828 203.015,224.572 199.978 C 227.755 196.455,227.290 193.178,223.013 189.000 C 219.467 185.536,213.638 182.167,212.994 183.209 M103.400 188.854 C 93.008 196.008,76.321 200.433,57.300 201.078 L 50.000 201.326 50.006 257.763 L 50.011 314.200 77.024 337.000 C 91.881 349.540,104.478 360.130,105.018 360.533 L 106.000 361.267 106.000 331.633 L 106.000 302.000 104.264 302.000 C 99.791 302.000,94.540 297.492,91.319 290.887 L 89.508 287.175 88.054 288.029 C 87.254 288.499,85.676 289.434,84.547 290.107 L 82.494 291.331 80.769 296.900 C 78.865 303.046,79.068 302.847,75.933 301.652 L 74.866 301.245 76.875 295.122 C 77.979 291.755,78.960 288.873,79.054 288.718 C 79.175 288.519,86.281 284.135,88.270 283.032 C 88.308 283.011,88.088 281.915,87.780 280.597 C 87.472 279.279,87.101 276.895,86.955 275.300 L 86.690 272.400 83.245 272.408 L 79.800 272.416 76.249 277.800 L 72.697 283.185 71.649 282.563 C 68.764 280.852,68.642 281.461,73.237 274.626 L 77.400 268.433 81.845 268.417 L 86.291 268.400 86.569 264.253 C 86.721 261.972,87.174 258.507,87.574 256.553 C 88.445 252.302,89.363 253.152,81.868 251.267 C 77.532 250.177,75.371 249.444,74.992 248.938 C 70.678 243.173,69.091 240.368,69.837 239.820 C 72.607 237.785,72.333 237.676,75.289 241.983 L 77.974 245.894 83.087 247.164 C 85.899 247.862,88.482 248.517,88.826 248.620 C 89.289 248.758,89.988 247.731,91.501 244.686 C 94.686 238.280,98.951 234.616,103.809 234.114 L 106.000 233.888 106.000 210.544 C 106.000 197.705,105.955 187.200,105.900 187.201 C 105.845 187.201,104.720 187.945,103.400 188.854 M103.800 238.376 C 99.034 239.528,98.983 240.981,103.693 241.473 L 106.052 241.719 105.926 239.991 C 105.788 238.101,105.584 237.945,103.800 238.376 M96.496 244.500 C 86.872 256.484,90.444 291.172,101.900 296.963 L 103.200 297.621 103.200 271.610 L 103.200 245.600 102.204 245.600 C 101.657 245.600,100.262 245.240,99.104 244.800 C 96.612 243.853,96.982 243.895,96.496 244.500 M318.974 268.900 C 319.078 269.395,319.279 272.265,319.421 275.278 L 319.680 280.756 322.340 282.360 C 328.828 286.271,332.548 286.863,333.377 284.116 C 333.612 283.338,333.316 283.067,330.899 281.850 C 327.000 279.886,326.840 279.588,328.905 278.139 L 330.600 276.949 332.600 278.065 C 337.089 280.570,337.458 277.295,333.128 273.383 C 329.193 269.828,318.455 266.427,318.974 268.900 " stroke="none" fill="#93ebf3" fill-rule="evenodd"></path><path id="path2" d="M235.051 111.055 C 209.089 116.622,198.535 144.784,215.959 162.000 C 233.722 179.551,268.526 171.174,273.398 148.174 C 278.281 125.126,258.540 106.018,235.051 111.055 M148.200 114.413 C 127.346 117.625,114.869 136.200,121.202 154.607 C 132.388 187.118,185.636 179.031,185.776 144.800 C 185.859 124.612,169.240 111.173,148.200 114.413 M229.500 133.149 C 239.582 138.292,236.276 154.831,225.174 154.791 C 215.810 154.757,211.378 142.447,218.143 135.266 C 221.174 132.048,225.692 131.206,229.500 133.149 M141.255 135.810 C 149.617 140.019,149.677 152.793,141.354 156.822 C 133.532 160.609,124.693 152.484,126.969 143.600 C 128.736 136.699,135.594 132.960,141.255 135.810 M228.416 144.075 C 226.231 146.421,229.119 150.423,231.371 148.171 C 232.441 147.102,232.318 144.913,231.132 143.900 C 230.048 142.975,229.402 143.017,228.416 144.075 M140.891 146.492 C 138.399 147.693,139.825 152.132,142.487 151.464 C 144.552 150.946,144.799 147.470,142.845 146.424 C 141.928 145.933,142.060 145.929,140.891 146.492 M201.865 206.055 C 200.956 217.729,201.632 220.976,205.341 222.772 L 207.112 223.629 209.256 222.679 C 212.470 221.255,212.513 221.157,212.482 215.187 C 212.468 212.328,212.333 209.006,212.183 207.806 L 211.911 205.624 208.655 204.359 C 206.865 203.664,204.663 203.008,203.763 202.903 L 202.126 202.710 201.865 206.055 M191.600 204.824 C 189.070 205.677,186.681 206.380,186.290 206.387 C 183.639 206.436,184.991 217.911,188.060 221.407 C 190.061 223.686,193.238 223.031,196.053 219.759 C 196.862 218.818,197.419 203.171,196.640 203.237 C 196.398 203.258,194.130 203.972,191.600 204.824 " stroke="none" fill="#fbfbfb" fill-rule="evenodd"></path><path id="path3" d="M210.500 83.487 C 211.105 83.578,212.095 83.578,212.700 83.487 C 213.305 83.395,212.810 83.320,211.600 83.320 C 210.390 83.320,209.895 83.395,210.500 83.487 M218.100 83.876 C 218.485 83.976,219.115 83.976,219.500 83.876 C 219.885 83.775,219.570 83.693,218.800 83.693 C 218.030 83.693,217.715 83.775,218.100 83.876 M239.505 106.283 C 240.002 106.379,240.722 106.375,241.105 106.275 C 241.487 106.175,241.080 106.096,240.200 106.101 C 239.320 106.105,239.007 106.187,239.505 106.283 M244.900 106.276 C 245.285 106.376,245.915 106.376,246.300 106.276 C 246.685 106.175,246.370 106.093,245.600 106.093 C 244.830 106.093,244.515 106.175,244.900 106.276 M283.800 108.400 C 285.106 109.720,286.265 110.800,286.375 110.800 C 286.485 110.800,285.506 109.720,284.200 108.400 C 282.894 107.080,281.735 106.000,281.625 106.000 C 281.515 106.000,282.494 107.080,283.800 108.400 M116.575 110.100 L 115.400 111.400 116.700 110.225 C 117.415 109.579,118.000 108.994,118.000 108.925 C 118.000 108.616,117.670 108.888,116.575 110.100 M82.581 111.700 L 81.000 113.400 82.700 111.819 C 84.281 110.348,84.584 110.000,84.281 110.000 C 84.216 110.000,83.451 110.765,82.581 111.700 M239.700 110.276 C 240.085 110.376,240.715 110.376,241.100 110.276 C 241.485 110.175,241.170 110.093,240.400 110.093 C 239.630 110.093,239.315 110.175,239.700 110.276 M244.500 110.276 C 244.885 110.376,245.515 110.376,245.900 110.276 C 246.285 110.175,245.970 110.093,245.200 110.093 C 244.430 110.093,244.115 110.175,244.500 110.276 M112.175 114.500 L 111.000 115.800 112.300 114.625 C 113.512 113.530,113.784 113.200,113.475 113.200 C 113.406 113.200,112.821 113.785,112.175 114.500 M265.000 118.800 C 265.859 119.680,266.652 120.400,266.762 120.400 C 266.872 120.400,266.259 119.680,265.400 118.800 C 264.541 117.920,263.748 117.200,263.638 117.200 C 263.528 117.200,264.141 117.920,265.000 118.800 M180.200 120.000 C 181.283 121.100,182.260 122.000,182.370 122.000 C 182.480 122.000,181.683 121.100,180.600 120.000 C 179.517 118.900,178.540 118.000,178.430 118.000 C 178.320 118.000,179.117 118.900,180.200 120.000 M124.985 121.300 L 123.000 123.400 125.100 121.415 C 126.255 120.323,127.200 119.378,127.200 119.315 C 127.200 119.017,126.829 119.349,124.985 121.300 M176.400 121.725 C 176.400 121.794,176.985 122.379,177.700 123.025 L 179.000 124.200 177.825 122.900 C 176.730 121.688,176.400 121.416,176.400 121.725 M127.578 124.300 L 126.200 125.800 127.700 124.422 C 129.096 123.138,129.384 122.800,129.078 122.800 C 129.012 122.800,128.337 123.475,127.578 124.300 M224.500 132.276 C 224.885 132.376,225.515 132.376,225.900 132.276 C 226.285 132.175,225.970 132.093,225.200 132.093 C 224.430 132.093,224.115 132.175,224.500 132.276 M278.137 141.800 C 278.139 143.560,278.209 144.230,278.293 143.289 C 278.378 142.349,278.377 140.909,278.291 140.089 C 278.205 139.270,278.136 140.040,278.137 141.800 M274.131 141.800 C 274.133 143.340,274.205 143.921,274.292 143.091 C 274.379 142.261,274.377 141.001,274.289 140.291 C 274.200 139.581,274.129 140.260,274.131 141.800 M79.600 139.725 C 79.600 139.794,80.185 140.379,80.900 141.025 L 82.200 142.200 81.025 140.900 C 79.930 139.688,79.600 139.416,79.600 139.725 M214.901 143.400 C 214.905 144.280,214.987 144.593,215.083 144.095 C 215.179 143.598,215.175 142.878,215.075 142.495 C 214.975 142.113,214.896 142.520,214.901 143.400 M265.978 161.500 L 264.600 163.000 266.100 161.622 C 267.496 160.338,267.784 160.000,267.478 160.000 C 267.412 160.000,266.737 160.675,265.978 161.500 M177.578 165.100 L 176.200 166.600 177.700 165.222 C 178.525 164.463,179.200 163.788,179.200 163.722 C 179.200 163.416,178.862 163.704,177.578 165.100 M180.400 167.800 C 179.428 168.790,178.723 169.600,178.833 169.600 C 178.943 169.600,179.828 168.790,180.800 167.800 C 181.772 166.810,182.477 166.000,182.367 166.000 C 182.257 166.000,181.372 166.810,180.400 167.800 M89.340 185.200 C 89.340 187.070,89.409 187.835,89.493 186.900 C 89.577 185.965,89.577 184.435,89.493 183.500 C 89.409 182.565,89.340 183.330,89.340 185.200 M225.600 184.525 C 225.600 184.594,226.185 185.179,226.900 185.825 L 228.200 187.000 227.025 185.700 C 225.930 184.488,225.600 184.216,225.600 184.525 M105.362 187.262 C 105.185 187.548,105.252 187.615,105.538 187.438 C 105.885 187.224,106.000 192.962,106.000 210.532 L 106.000 233.911 107.486 234.190 C 112.201 235.074,116.893 239.652,119.776 246.180 C 120.354 247.489,120.890 248.624,120.968 248.701 C 121.045 248.779,123.664 248.169,126.787 247.347 L 132.465 245.853 134.301 243.226 C 135.311 241.782,136.566 240.014,137.091 239.297 L 138.045 237.994 139.523 239.081 C 140.335 239.679,141.075 240.220,141.167 240.284 C 141.833 240.748,134.913 249.646,133.621 249.986 C 132.839 250.192,129.943 250.922,127.183 251.609 L 122.167 252.857 122.881 256.329 C 124.325 263.353,124.241 273.044,122.669 280.626 L 122.166 283.052 126.831 285.818 L 131.496 288.585 133.503 294.919 L 135.510 301.254 134.455 301.661 C 131.659 302.738,131.620 302.697,129.687 296.771 L 127.917 291.342 124.841 289.498 C 123.149 288.484,121.565 287.598,121.320 287.527 C 121.075 287.457,120.037 289.066,119.013 291.103 C 116.031 297.036,110.529 302.000,106.936 302.000 L 106.000 302.000 106.000 331.400 C 106.000 347.570,106.081 360.800,106.180 360.800 C 106.333 360.800,116.641 352.198,156.700 318.640 L 162.000 314.200 162.000 257.763 L 162.000 201.326 154.900 201.077 C 135.836 200.407,119.935 196.209,109.169 189.003 C 105.454 186.516,105.741 186.648,105.362 187.262 M197.107 187.490 C 197.826 187.579,198.906 187.577,199.507 187.486 C 200.108 187.395,199.520 187.322,198.200 187.324 C 196.880 187.326,196.388 187.401,197.107 187.490 M175.701 194.600 C 175.705 195.480,175.787 195.793,175.883 195.295 C 175.979 194.798,175.975 194.078,175.875 193.695 C 175.775 193.313,175.696 193.720,175.701 194.600 M311.314 195.800 C 311.317 196.900,311.395 197.303,311.487 196.695 C 311.579 196.086,311.577 195.186,311.482 194.695 C 311.387 194.203,311.311 194.700,311.314 195.800 M156.500 197.096 C 157.765 197.175,159.835 197.175,161.100 197.096 C 162.365 197.016,161.330 196.951,158.800 196.951 C 156.270 196.951,155.235 197.016,156.500 197.096 M57.900 201.082 C 58.395 201.178,59.205 201.178,59.700 201.082 C 60.195 200.987,59.790 200.909,58.800 200.909 C 57.810 200.909,57.405 200.987,57.900 201.082 M218.900 202.676 C 219.285 202.776,219.915 202.776,220.300 202.676 C 220.685 202.575,220.370 202.493,219.600 202.493 C 218.830 202.493,218.515 202.575,218.900 202.676 M227.375 204.100 L 226.200 205.400 227.500 204.225 C 228.215 203.579,228.800 202.994,228.800 202.925 C 228.800 202.616,228.470 202.888,227.375 204.100 M311.744 207.600 C 311.744 209.690,311.812 210.545,311.894 209.500 C 311.976 208.455,311.976 206.745,311.894 205.700 C 311.812 204.655,311.744 205.510,311.744 207.600 M201.346 213.800 C 201.347 216.000,201.414 216.849,201.495 215.687 C 201.576 214.524,201.576 212.724,201.493 211.687 C 201.411 210.649,201.345 211.600,201.346 213.800 M216.493 211.600 C 216.493 212.370,216.575 212.685,216.676 212.300 C 216.776 211.915,216.776 211.285,216.676 210.900 C 216.575 210.515,216.493 210.830,216.493 211.600 M197.775 223.700 L 196.600 225.000 197.900 223.825 C 199.112 222.730,199.384 222.400,199.075 222.400 C 199.006 222.400,198.421 222.985,197.775 223.700 M312.166 244.000 C 312.166 248.070,312.225 249.735,312.298 247.700 C 312.371 245.665,312.371 242.335,312.298 240.300 C 312.225 238.265,312.166 239.930,312.166 244.000 M105.938 239.804 C 106.096 241.794,106.318 241.896,108.925 241.172 C 110.715 240.675,110.673 240.115,108.776 239.164 C 105.962 237.754,105.778 237.795,105.938 239.804 M111.200 244.820 C 110.210 245.225,108.905 245.566,108.300 245.578 L 107.200 245.600 107.200 271.608 L 107.200 297.616 108.751 296.825 C 119.611 291.285,123.215 262.941,115.144 246.548 C 113.769 243.754,113.786 243.761,111.200 244.820 M312.524 263.000 C 312.526 264.320,312.601 264.812,312.690 264.093 C 312.779 263.374,312.777 262.294,312.686 261.693 C 312.595 261.092,312.522 261.680,312.524 263.000 M86.493 264.800 C 86.493 265.570,86.575 265.885,86.676 265.500 C 86.776 265.115,86.776 264.485,86.676 264.100 C 86.575 263.715,86.493 264.030,86.493 264.800 M142.727 274.650 C 144.997 278.076,146.797 280.923,146.727 280.978 C 146.657 281.032,145.890 281.550,145.022 282.128 L 143.445 283.179 139.863 277.790 L 136.281 272.400 130.740 272.400 L 125.200 272.400 125.200 270.400 L 125.200 268.400 131.900 268.410 L 138.600 268.421 142.727 274.650 M318.901 270.200 C 318.905 271.080,318.987 271.393,319.083 270.895 C 319.179 270.398,319.175 269.678,319.075 269.295 C 318.975 268.913,318.896 269.320,318.901 270.200 M312.901 271.400 C 312.905 272.280,312.987 272.593,313.083 272.095 C 313.179 271.598,313.175 270.878,313.075 270.495 C 312.975 270.113,312.896 270.520,312.901 271.400 M319.293 276.800 C 319.293 277.570,319.375 277.885,319.476 277.500 C 319.576 277.115,319.576 276.485,319.476 276.100 C 319.375 275.715,319.293 276.030,319.293 276.800 M313.293 278.000 C 313.293 278.770,313.375 279.085,313.476 278.700 C 313.576 278.315,313.576 277.685,313.476 277.300 C 313.375 276.915,313.293 277.230,313.293 278.000 M313.693 284.400 C 313.693 285.170,313.775 285.485,313.876 285.100 C 313.976 284.715,313.976 284.085,313.876 283.700 C 313.775 283.315,313.693 283.630,313.693 284.400 M314.101 290.600 C 314.105 291.480,314.187 291.793,314.283 291.295 C 314.379 290.798,314.375 290.078,314.275 289.695 C 314.175 289.313,314.096 289.720,314.101 290.600 M314.501 297.000 C 314.505 297.880,314.587 298.193,314.683 297.695 C 314.779 297.198,314.775 296.478,314.675 296.095 C 314.575 295.713,314.496 296.120,314.501 297.000 M314.909 304.400 C 314.909 305.390,314.987 305.795,315.082 305.300 C 315.178 304.805,315.178 303.995,315.082 303.500 C 314.987 303.005,314.909 303.410,314.909 304.400 M315.328 314.000 C 315.328 315.430,315.401 316.015,315.489 315.300 C 315.578 314.585,315.578 313.415,315.489 312.700 C 315.401 311.985,315.328 312.570,315.328 314.000 M315.324 338.200 C 315.326 339.520,315.401 340.012,315.490 339.293 C 315.579 338.574,315.577 337.494,315.486 336.893 C 315.395 336.292,315.322 336.880,315.324 338.200 M314.893 345.600 C 314.893 346.370,314.975 346.685,315.076 346.300 C 315.176 345.915,315.176 345.285,315.076 344.900 C 314.975 344.515,314.893 344.830,314.893 345.600 M90.101 357.800 C 90.105 358.680,90.187 358.993,90.283 358.495 C 90.379 357.998,90.375 357.278,90.275 356.895 C 90.175 356.513,90.096 356.920,90.101 357.800 M188.900 399.887 C 189.505 399.978,190.495 399.978,191.100 399.887 C 191.705 399.795,191.210 399.720,190.000 399.720 C 188.790 399.720,188.295 399.795,188.900 399.887 M208.900 399.887 C 209.505 399.978,210.495 399.978,211.100 399.887 C 211.705 399.795,211.210 399.720,210.000 399.720 C 208.790 399.720,208.295 399.795,208.900 399.887 " stroke="none" fill="#5cc4cc" fill-rule="evenodd"></path><path id="path4" d="M191.200 77.653 C 156.350 81.211,133.465 88.708,116.757 102.039 L 115.714 102.871 113.757 101.891 C 98.425 94.213,80.743 99.993,72.781 115.285 C 65.683 128.920,70.457 143.560,84.241 150.426 C 85.758 151.181,87.063 151.833,87.140 151.873 C 87.216 151.913,86.814 154.343,86.244 157.273 C 84.498 166.260,83.223 179.939,83.206 189.876 C 83.199 193.747,83.729 193.290,77.794 194.540 C 70.374 196.102,62.676 196.855,53.900 196.876 L 46.000 196.896 46.000 256.565 L 46.000 316.235 64.438 331.785 C 74.580 340.337,83.130 347.587,83.438 347.896 C 83.846 348.303,84.009 349.629,84.032 352.729 C 84.078 358.986,84.536 363.712,85.114 363.905 C 85.384 363.995,86.701 364.875,88.041 365.862 C 91.036 368.066,90.913 368.217,90.414 362.953 C 89.958 358.154,89.871 353.600,90.233 353.600 C 90.362 353.600,93.881 356.496,98.054 360.035 C 104.975 365.906,105.709 366.423,106.413 365.935 C 106.838 365.641,120.413 354.330,136.579 340.800 L 165.973 316.200 165.985 256.600 L 165.997 197.000 157.499 196.949 C 136.203 196.820,115.575 190.958,107.825 182.832 C 106.323 181.256,106.393 181.244,103.585 183.581 C 99.897 186.649,91.520 191.200,89.559 191.200 C 88.919 191.200,89.332 177.512,90.193 170.200 C 96.132 119.767,120.505 94.812,172.400 86.029 C 211.815 79.357,250.334 84.348,272.600 99.011 C 292.319 111.997,302.600 130.552,308.168 163.203 C 311.169 180.797,311.807 192.054,312.421 238.200 C 312.634 254.274,313.054 270.506,313.387 275.600 C 313.711 280.550,314.291 289.280,314.676 295.000 C 315.559 308.142,315.684 341.775,314.878 349.800 C 314.365 354.911,313.369 362.519,312.977 364.313 L 312.778 365.225 314.133 364.313 C 319.837 360.471,319.475 361.029,320.172 355.000 C 321.780 341.091,321.968 317.716,320.638 297.200 C 320.331 292.470,320.125 288.551,320.181 288.492 C 320.237 288.432,321.636 289.026,323.289 289.812 C 331.048 293.496,336.802 292.153,339.018 286.142 C 339.411 285.074,340.055 283.838,340.448 283.395 C 347.100 275.892,335.941 263.937,320.300 261.809 L 318.400 261.551 318.383 257.875 C 318.091 195.875,316.864 174.961,312.272 153.716 L 310.957 147.632 312.141 147.142 C 324.666 141.954,331.182 127.890,327.034 115.000 C 321.057 96.425,300.550 88.197,284.165 97.799 L 282.421 98.821 279.500 96.661 C 260.215 82.399,223.058 74.401,191.200 77.653 M304.514 100.229 C 324.889 105.509,328.808 132.068,310.578 141.320 L 309.356 141.940 307.084 135.173 L 304.811 128.406 306.585 126.771 C 313.565 120.337,307.029 109.803,297.782 112.585 C 296.713 112.907,295.822 113.132,295.803 113.085 C 295.586 112.542,290.774 106.931,289.227 105.415 C 286.712 102.952,286.711 102.972,289.467 101.754 C 294.299 99.616,299.942 99.045,304.514 100.229 M107.200 105.537 C 111.342 106.906,111.315 106.681,107.824 110.663 C 106.118 112.608,103.975 115.236,103.061 116.503 C 101.759 118.308,101.227 118.758,100.600 118.586 C 95.321 117.142,92.773 117.522,90.151 120.144 C 86.187 124.108,86.401 128.969,90.712 132.845 L 92.744 134.672 90.882 140.236 C 89.857 143.296,88.959 145.886,88.885 145.992 C 88.510 146.525,83.118 143.120,80.915 140.961 C 65.224 125.576,85.431 98.344,107.200 105.537 M235.968 106.779 C 192.929 114.654,192.791 170.730,235.800 175.206 C 265.435 178.289,285.744 153.245,275.059 126.792 C 269.226 112.350,252.452 103.763,235.968 106.779 M147.091 110.577 C 125.043 114.483,111.988 132.417,116.556 152.524 C 125.620 192.426,189.761 185.481,189.738 144.600 C 189.724 121.829,170.436 106.441,147.091 110.577 M251.670 111.147 C 275.158 117.302,282.410 148.472,263.879 163.625 C 247.874 176.712,221.406 173.271,211.402 156.803 C 196.858 132.861,222.704 103.558,251.670 111.147 M163.431 115.009 C 190.554 121.808,194.552 158.091,169.598 170.979 C 145.793 183.274,119.830 169.723,119.822 145.000 C 119.814 123.443,140.454 109.249,163.431 115.009 M221.600 133.036 C 211.289 137.490,214.144 154.570,225.200 154.570 C 233.956 154.570,238.397 143.790,232.815 136.084 C 230.516 132.911,225.221 131.472,221.600 133.036 M132.984 136.147 C 127.535 138.684,125.279 145.894,128.121 151.683 C 133.128 161.879,147.417 157.802,147.336 146.200 C 147.279 138.131,139.869 132.941,132.984 136.147 M231.777 144.089 C 233.340 146.320,231.507 149.732,229.148 148.984 C 228.172 148.674,227.101 146.345,227.465 145.322 C 228.243 143.134,230.630 142.452,231.777 144.089 M143.600 146.800 C 144.670 147.870,144.637 149.896,143.530 151.074 C 141.204 153.550,137.873 149.795,139.998 147.094 C 141.025 145.787,142.470 145.670,143.600 146.800 M196.600 168.592 C 196.380 168.663,195.210 169.024,194.000 169.393 C 189.577 170.745,186.110 173.819,185.201 177.198 C 184.859 178.468,184.568 178.743,183.102 179.181 C 169.667 183.199,166.677 202.635,178.944 206.201 L 181.121 206.834 180.918 209.117 C 180.329 215.743,183.631 224.148,187.640 226.220 C 190.421 227.659,195.243 226.374,197.936 223.479 L 198.872 222.472 200.419 224.019 C 203.794 227.394,206.549 228.083,210.488 226.538 C 216.052 224.355,216.543 223.243,216.330 213.299 L 216.200 207.199 219.221 207.199 C 222.922 207.200,225.493 206.073,228.002 203.351 C 234.841 195.932,231.164 186.726,218.672 179.987 C 215.951 178.520,215.661 178.243,215.415 176.888 C 214.478 171.706,208.730 168.367,200.858 168.432 C 198.736 168.449,196.820 168.521,196.600 168.592 M221.118 187.025 C 226.651 191.232,228.108 195.173,225.539 198.991 C 222.994 202.776,220.058 203.572,215.318 201.762 C 202.556 196.891,200.756 196.740,191.600 199.775 C 184.321 202.188,180.893 202.554,178.835 201.139 C 173.033 197.150,175.992 186.327,183.573 183.809 L 185.482 183.175 187.530 184.553 C 193.446 188.534,206.814 187.822,212.673 183.214 L 213.704 182.403 216.079 183.702 C 217.385 184.416,219.652 185.911,221.118 187.025 M109.090 188.836 C 119.378 195.948,135.564 200.206,155.500 201.045 L 162.000 201.318 162.000 257.820 L 162.000 314.322 133.969 337.792 C 118.552 350.700,105.727 361.171,105.469 361.061 C 105.211 360.950,92.670 350.438,77.600 337.702 L 50.200 314.543 50.099 257.724 L 49.997 200.905 55.899 200.852 C 74.850 200.681,93.625 195.802,103.600 188.456 C 106.289 186.476,105.607 186.428,109.090 188.836 M206.110 203.201 C 207.536 203.642,209.517 204.362,210.512 204.802 L 212.320 205.602 212.607 210.588 C 213.174 220.408,212.782 221.810,209.134 223.022 C 203.455 224.908,200.929 220.952,201.368 210.861 C 201.780 201.411,201.545 201.791,206.110 203.201 M197.408 204.300 C 197.253 205.125,197.070 208.827,197.002 212.526 C 196.863 220.071,196.903 219.958,193.622 222.061 C 188.794 225.154,185.286 220.772,184.894 211.160 L 184.706 206.521 187.253 205.874 C 188.654 205.518,191.330 204.695,193.200 204.044 C 197.726 202.468,197.751 202.470,197.408 204.300 M102.089 234.564 C 97.418 236.088,92.652 241.178,90.527 246.912 C 90.105 248.050,89.584 248.796,89.214 248.791 C 88.504 248.780,77.990 246.142,77.840 245.937 C 77.786 245.862,76.690 244.270,75.406 242.400 C 74.121 240.530,72.927 238.837,72.752 238.637 C 72.416 238.254,69.608 239.947,69.603 240.535 C 69.601 240.720,70.946 242.813,72.590 245.186 L 75.581 249.501 81.690 251.005 C 89.031 252.811,88.526 252.413,87.798 255.817 C 87.470 257.347,87.102 260.220,86.980 262.200 C 86.857 264.180,86.669 266.385,86.561 267.100 L 86.364 268.400 81.988 268.400 L 77.613 268.400 73.606 274.390 C 71.403 277.685,69.600 280.550,69.600 280.758 C 69.600 281.351,72.421 282.943,72.777 282.551 C 72.953 282.358,74.563 279.995,76.356 277.300 L 79.616 272.400 83.208 272.400 C 86.720 272.400,86.800 272.421,86.800 273.348 C 86.800 274.263,87.819 280.528,88.246 282.237 C 88.424 282.950,87.773 283.479,83.811 285.837 L 79.167 288.600 77.435 294.000 C 76.483 296.970,75.578 299.805,75.425 300.300 C 75.140 301.220,75.347 301.379,77.862 302.161 C 78.663 302.411,78.855 302.037,80.592 296.823 L 82.461 291.217 85.786 289.209 C 89.908 286.719,89.535 286.647,91.176 290.243 C 98.400 306.077,112.357 305.837,119.650 289.755 C 121.034 286.701,120.550 286.754,124.614 289.209 L 127.939 291.217 129.803 296.809 C 130.828 299.884,131.766 302.400,131.887 302.400 C 135.471 302.400,135.605 301.626,133.265 294.419 L 131.388 288.637 127.194 286.101 C 124.887 284.707,122.788 283.438,122.529 283.283 C 122.171 283.068,122.194 282.423,122.621 280.600 C 124.257 273.621,124.257 262.383,122.622 255.405 C 121.949 252.533,121.384 252.926,128.872 251.064 L 135.000 249.540 138.090 245.009 L 141.179 240.479 139.816 239.439 C 137.943 238.011,138.051 237.948,135.171 242.158 L 132.600 245.917 127.134 247.358 C 124.128 248.151,121.504 248.800,121.303 248.800 C 121.102 248.800,120.067 247.046,119.003 244.902 C 114.947 236.732,108.159 232.583,102.089 234.564 M108.200 238.745 C 110.914 239.980,111.173 240.669,109.130 241.220 C 105.965 242.074,99.600 241.530,99.600 240.405 C 99.600 238.748,105.642 237.582,108.200 238.745 M101.800 245.378 L 103.400 245.636 103.294 271.618 C 103.236 285.908,103.092 297.600,102.974 297.600 C 102.188 297.600,100.214 296.109,98.457 294.187 C 89.827 284.744,88.117 260.544,95.094 246.600 C 96.616 243.558,96.609 243.563,98.522 244.393 C 99.445 244.793,100.920 245.237,101.800 245.378 M115.147 246.300 C 122.044 259.989,120.724 284.041,112.553 293.553 C 111.064 295.286,108.198 297.600,107.540 297.600 C 107.353 297.600,107.200 285.945,107.201 271.700 L 107.202 245.800 110.101 244.953 C 111.695 244.487,113.222 244.082,113.494 244.053 C 113.766 244.024,114.510 245.035,115.147 246.300 M325.707 269.090 C 331.192 270.892,336.400 275.357,336.400 278.256 C 336.400 279.733,335.519 279.772,332.830 278.415 L 330.377 277.177 328.977 278.244 C 327.254 279.559,327.570 280.065,331.192 281.796 C 336.705 284.431,332.228 287.477,326.588 284.928 C 319.490 281.721,319.438 281.637,318.967 272.647 L 318.698 267.494 320.649 267.781 C 321.722 267.939,323.998 268.528,325.707 269.090 M125.476 268.657 C 125.324 268.809,125.200 269.713,125.200 270.667 L 125.200 272.400 130.738 272.400 L 136.275 272.400 139.739 277.600 C 143.609 283.409,143.282 283.162,145.286 281.800 L 146.758 280.799 142.623 274.700 L 138.488 268.600 132.120 268.490 C 128.618 268.430,125.628 268.505,125.476 268.657 " stroke="none" fill="#0f7d8d" fill-rule="evenodd"></path></g></svg>